<svg fill="none" height="105" viewBox="0 0 114 105" width="114" xmlns="http://www.w3.org/2000/svg" class="-mt-10"><g fill="#f7efe2"><path d="m105.08 80.3366c0-3.9883-15.4675-22.3023-15.4675-25.2325 0-1.6279 3.2735-3.0931 7.3654-7 2.9461-2.8489 5.6471-6.5931 5.6471-10.5814 0-1.9535-.819-2.1977-.819-2.1977-2.4548 5.9419-4.6644 7.0814-4.6644 7.0814s.3273-2.0349.3273-4.3954c0-4.8837-1.1457-8.1395-1.1457-8.6279 0-.4069-.1637-1.0581-.8184-1.0581-1.5549 0-.982 4.4767-.982 7.2442 0 2.7674-.1637 5.6977-1.3913 6.8372.7366-.9768 1.1457-2.6047 1.1457-4.7209 0-2.1163-.2455-5.5349-.2455-7.0814 0-1.5466.2455-2.0349.2455-2.0349s-.1636-.8954-.9002-.8954c-1.3912 0-1.3094 2.8489-1.4731 6.0233-.1636 3.1744-.2455 6.186-1.6367 8.7093 1.4731-2.4419 1.2276-9.1977 1.2276-11.5582-1.0639 1.0582-1.6368 4.314-2.046 6.7559-.4092 2.4418-.982 4.7209-2.537 6.1046-1.5549 1.4651-1.8004 1.9535-1.8004 1.9535s-.0818-.7326-.0818-1.7907.2455-2.5233.2455-5.4535c-1.8004 0-3.8464 2.2791-3.8464 12.1279 0 9.3605 4.4193 21.9768 4.4193 21.9768s2.5369 1.7093 9.0839 4.4767c5.3191 2.3605 10.1481 3.3372 10.1481 3.3372z"></path><path d="m56.0585 104.918s12.1938.733 22.4236-3.418c0-16.442-25.3697-34.5118-25.3697-41.5118 0-2.5233 2.5369-4.1512 2.8643-4.1512-1.7186-.7325-5.3195-5.0465-8.102-9.3604 0 0-2.7824 1.1395-5.7286 1.5465 0 2.1976.1637 10.6628-5.4831 22.7907-2.3733 5.2093-3.3554 7.2442-3.3554 7.2442s22.7509-2.2791 22.7509 26.86z"></path><path d="m27.5791 95.0697s10.4752 8.3833 26.5154 9.6863c.4092-9.6049-3.1098-25.3142-21.1959-25.6398 0 .0814-4.0919 8.1396-5.3195 15.9535z"></path><path d="m55.7314 50.3835s1.8823 3.1744 3.9283 5.5349c3.9282.5697 9.575 1.6279 9.575-3.2559 0-1.7093-.0819-2.5232-.0819-2.7674 0-.6512 1.7186-.5698 1.7186-1.7093 0-.9767-.9002-.9767-.9002-1.4651 0-.407 2.046-1.0582 2.046-2.3605s-.7366-1.0581-.7366-2.1977c0-1.7093 2.6188-1.9534 2.6188-4.1511s-4.9102-5.5349-4.9102-17.3372c0-2.7675-.8184-3.5814-1.8005-3.5814-.982 0-9.2476 5.6976-9.2476 12.5349 0 2.686-.3274 4.6395-.3274 4.6395 2.8643 0 7.7746 2.7674 7.7746 8.0581 0 5.4535-4.6648 8.1396-8.1019 8.1396-.9003 0-1.555-.0814-1.555-.0814z"></path></g><path d="m68.9077 20.5927c0 12.8605 4.9103 14.9768 4.9103 17.2558 0 2.2791-2.6188 2.4419-2.6188 4.2326 0 .7326.5728 1.5465.5728 1.5465s29.298-19.4535 29.298-33.5349c0-2.36044-.982-6.75579-10.7208-6.75579-12.603 0-26.1881 5.94186-26.1881 5.94186s4.7466 3.98833 4.7466 11.31393z" fill="#c69e4e"></path><path d="m57.6134 56.3253c-.7366 0-1.1457-.2442-1.6368-.4884-.6547 0-2.8643 1.8721-2.8643 3.8256 0 8.3023 25.3697 25.9651 25.3697 41.8375 0 0 15.9584-4.9654 26.597-21.2445 0 0-26.4333-6.6744-38.9545-24.093 0 0-.4092.0814-1.4731.0814-1.8004 0-4.9102-.407-4.9102-.407s-1.3913.4884-2.1278.4884z" fill="#141414"></path><path d="m57.6142 34.2666c3.4372 0 7.7746 3.093 7.7746 8.0581 0 4.9652-4.0919 8.1396-8.102 8.1396-.5728 0-1.5549-.1628-1.5549-.1628l-3.519-6.3489z" fill="#e9ce81"></path><path d="m20.4595 34.9177s.4092 2.1976.4092 6.3488c0 21.3256-13.83061 26.8605-13.83061 26.8605s4.82841 16.3604 20.45941 26.9418c0 0 1.1458-6.593 5.3195-15.8721 7.2017 0 21.196 3.5814 21.196 25.6393l1.9641.163c0-14.0813-5.6468-26.9418-22.6691-26.9418 0 0 1.3912-2.7674 3.3554-7.2442 2.3732-5.4535 5.4831-11.8837 5.4831-22.7907 0 0 1.6367-.2442 1.8004-.3256 1.3913-.3255 2.8643-.7325 4.1737-1.3837 1.8005-.8139 3.4372-1.7907 4.8285-3.1744 1.6367-1.5465 2.9461-3.5 3.7645-5.6163.6547-1.7093.9002-3.5.9821-5.3721.0818-1.3023.0818-2.5232.3273-3.8256 0-.0813.0818-.1627.0818-.3255 0 0 3.6009 2.686 7.7746 2.686 1.6368 0 2.4552-.2442 2.4552-.2442s-4.4333-1.1851-9.8346-4.4409c2.5-5 7.0521-8.9079 8.607-8.9079 1.8004 0 1.8004 3.5814 1.8004 3.5814l3.1099-2.2791s-1.0639-7.3256-7.8565-8.95347c0-.08139-26.2699 9.76747-43.7013 25.47677z" fill="#141414"></path><path d="m72.4263 44.6858c-.6547.4884-2.4551 1.7093-2.4551 2.0349 0 .4883.9002.5697.9002 1.4651 0 1.2209-1.7186.8953-1.7186 1.7093 0 1.0581.0818 1.7907.0818 2.7674 0 3.0116-3.1916 3.5814-3.1916 3.5814s5.7286 9.6861 19.7229 16.3605c0 0-4.4193-12.6163-4.4193-21.9768 0-9.8488 2.046-12.1279 3.8464-12.1279 0 2.9303-.2455 4.3954-.2455 5.4535 0 1.0582.0818 1.7907.0818 1.7907s.2455-.5698 1.8005-1.9535c1.5549-1.4651 2.0459-3.7442 2.5369-6.1046.4092-2.4419.9002-5.6977 2.046-6.7558 0 2.3604.2455 9.1162-1.2276 11.5581 1.3912-2.5233 1.4731-5.5349 1.6368-8.7093.1636-3.1744.1636-6.0233 1.473-6.0233.7366 0 .9003.8954.9003.8954s-.2456.4884-.2456 2.0349.2456 4.8837.2456 7.0814c0 2.1163-.4092 3.8256-1.1458 4.7209 1.2276-1.1395 1.3913-3.9884 1.3913-6.8372 0-2.7675-.4911-7.2442.982-7.2442.7366 0 .8184.6512.8184 1.0581 0 .4884 1.1457 3.7442 1.1457 8.628 0 2.3604-.3273 4.3953-.3273 4.3953s2.2914-1.1395 4.6645-7.0814c0 0 .819.1628.819 2.1977 0 3.9884-2.6192 7.7325-5.6472 10.5814-4.0919 3.907-7.3654 5.3721-7.3654 7 0 2.9302 15.4676 21.2442 15.4676 25.2325 0 0 8.92-12.1279 8.92-30.3604 0-21.2442-12.848-34.5931-12.848-34.5931-5.8928 13.5931-28.6437 29.221-28.6437 29.221z" fill="#bd9646"></path><path d="m62.4423 20.2676s3.4669 2.8836 3.0577 9.2324c0 0-3.7265-1.4651-7-3.5 0 0 1.1598-2.8022 3.9423-5.7324z" fill="#c39b4c"></path><path d="m20.4596 34.918s-19.15003 14.6511-19.15003 25.6395c0 6.1047 7.52907 6.5116 7.52907 6.5116h.08184s11.94832-5.9418 11.94832-25.8837c.0818-4.4767-.4092-6.2674-.4092-6.2674z" fill="#c69e4e"></path><path d="m32.1622 2.76699s-32.1622 41.91861-32.1622 57.79071c0 6.593 7.11989 7.5698 7.11989 7.5698s.90021-.3256 1.88226-.9768h-.08183s-7.52908-.4884-7.52908-6.5116c0-13.9186 31.01656-34.593 31.01656-34.593s-4.583 6.5116-.2456 14.8139c0 0 7.7746-3.6628 7.7746-13.2674-.0818-2.3605-.6547-3.9884-.6547-3.9884s-5.1558 4.2326-6.4652 14c-.4091-9.4419 3.9283-14.6512 7.8565-16.8488 3.9282-2.1977 29.7071-17.33725 49.6755-17.33725 7.2017 0 10.7211 2.60465 10.7211 6.75585 0 4.1511-3.9286 15.5465-29.2983 33.5349 0 0 .8184.9767-.7365 2.1162 0 0 31.3438-21 31.3438-35.407 0-10.17437-16.3675-10.255766-31.5075-10.3371611-19.3955-.1627907-38.7093 2.6860511-38.7093 2.6860511z" fill="#e8cd80"></path><path d="m40.4277 22.7093s2.046-1.9534 5.7287-1.9534c4.5011 0 6.9562 3.4186 6.9562 3.4186s-2.1278 1.9535-5.6468 1.9535c-4.6648 0-7.0381-3.4187-7.0381-3.4187z" fill="#e8cd80"></path><path d="m36.7451 70.813v-13.4302s13.8306 2.2791 19.6411 13.2675c0 0-5.074 1.5465-10.4753 1.5465-5.8104-.0814-9.1658-1.3838-9.1658-1.3838z" fill="#e9ce81"></path><path d="m41.083 25.8018c0 11.8023 11.3755 30.5232 16.6131 30.5232 1.3094 0 1.9641-.407 1.9641-.407-10.2297-12.6162-12.1938-30.1162-18.5772-30.1162z" fill="#c69e4e"></path></svg>